<svg xmlns="http://www.w3.org/2000/svg" viewBox="0 0 88.34 90.46"><defs><style>.cls-1{fill:#ffcf00;}</style></defs><title>barco_amarillo</title><g id="Capa_2" data-name="Capa 2"><g id="Capa_1-2" data-name="Capa 1"><path class="cls-1" d="M42.23,0h3.89V7.87h16.3c1.71,0,2.41.71,2.41,2.42,0,2.8,0,5.59,0,8.39v1c.91,0,1.67,0,2.44,0,3.93,0,6.4,2.46,6.4,6.38,0,5.82,0,11.65,0,17.48a1.36,1.36,0,0,0,1,1.48c3,1.28,5.9,2.63,8.85,4,2,.92,2.3,1.53,1.6,3.64l-11,33c-.09.26-.15.53-.24.89a11.55,11.55,0,0,0,5-1.09c1.13-.56,2.24-1.18,3.4-1.68a13.56,13.56,0,0,1,6.06-1.11v3.65a26.9,26.9,0,0,0-4.6,1.16c-2.65,1.18-5.18,2.61-8.12,3H71.74c-3-.41-5.55-1.92-8.26-3.07a11.38,11.38,0,0,0-9.5.14c-2.6,1.22-5.13,2.57-8,2.93H42.23c-2.93-.39-5.45-1.83-8.1-3a11.38,11.38,0,0,0-9.42,0c-2.65,1.16-5.17,2.61-8.1,3H12.73a26.09,26.09,0,0,1-7.25-2.6A23.28,23.28,0,0,0,1,86.58a5,5,0,0,0-1-.06V82.63a14.75,14.75,0,0,1,7,1.54c1.08.54,2.14,1.12,3.24,1.59a9.9,9.9,0,0,0,4.25.73c-.13-.42-.22-.73-.32-1L3.13,52.18c-.52-1.55-.16-2.37,1.33-3,3.14-1.41,6.26-2.83,9.41-4.21a1.15,1.15,0,0,0,.82-1.23c0-5.92,0-11.84,0-17.75A5.94,5.94,0,0,1,21,19.66c.82,0,1.63,0,2.53,0V10.48c0-2,.63-2.6,2.58-2.61H42.23Zm0,45.34L9.93,60.18,18.55,86c1.05-.52,2-1,2.88-1.42a16.46,16.46,0,0,1,16,0A17.13,17.13,0,0,0,40.54,86a13,13,0,0,0,10.14-1.24,16.31,16.31,0,0,1,16.43,0c.84.45,1.72.83,2.69,1.29l8.61-25.85L46.1,45.33V68.77H42.23Zm27.52-2.56V42c0-5.3,0-10.59,0-15.89,0-1.81-.69-2.49-2.53-2.49H21.12c-1.87,0-2.52.68-2.53,2.58q0,7.82,0,15.63c0,.28,0,.56,0,.92l.88-.35q11.65-5.25,23.31-10.51a3,3,0,0,1,2.68,0q8.43,3.82,16.88,7.6ZM27.49,19.58H60.84v-7.7H27.49Zm14.73,16.9L7.27,52.2l1.41,4.2c.29-.12.5-.2.71-.3l11.38-5.23q10.34-4.75,20.67-9.51c.3-.14.73-.45.74-.71C42.25,39.32,42.22,38,42.22,36.48Zm3.91,0c0,1.37,0,2.57,0,3.76a1,1,0,0,0,.7,1.13q13.95,6.38,27.87,12.78l5,2.28,1.4-4.22Z"/><path class="cls-1" d="M22.61,30.43V26.59H65.74v3.84Z"/><path class="cls-1" d="M26.45,32.53v3.79H22.62V32.53Z"/><path class="cls-1" d="M61.91,36.34V32.51h3.83v3.83Z"/><path class="cls-1" d="M40.21,13.82v3.79H36.36V13.82Z"/><path class="cls-1" d="M48.14,17.64V13.82H52v3.82Z"/><path class="cls-1" d="M30.46,13.81h3.81v3.82H30.46Z"/><path class="cls-1" d="M46.09,13.83v3.8H42.27v-3.8Z"/><path class="cls-1" d="M57.88,17.65H54.09V13.84h3.79Z"/></g></g></svg>