<svg xmlns="http://www.w3.org/2000/svg" viewBox="0 0 90.46 84.53"><defs><style>.cls-1{fill:#ffcf00;}</style></defs><title>diamante_amarillo</title><g id="Capa_2" data-name="Capa 2"><g id="Capa_1-2" data-name="Capa 1"><path class="cls-1" d="M0,44.72a2.15,2.15,0,0,1,2.28-1.28c1,.07,2,0,3,0A1.76,1.76,0,1,1,5.32,47C4.15,47,3,47,1.8,47A2.17,2.17,0,0,1,0,45.78Z"/><path class="cls-1" d="M90.46,45.78A2.44,2.44,0,0,1,88,47c-.9-.06-1.82,0-2.73,0a1.75,1.75,0,0,1-1.86-1.8,1.73,1.73,0,0,1,1.91-1.72c1,0,1.94,0,2.91,0a2.14,2.14,0,0,1,2.28,1.28Z"/><path class="cls-1" d="M45.25,25.63c7.07,0,14.13,0,21.2,0a4.62,4.62,0,0,1,4.25,2.32c3.08,4.81,6.2,9.58,9.3,14.37,1.37,2.12,1.26,3.83-.41,5.71q-15.51,17.42-31,34.81c-2,2.29-4.65,2.27-6.7,0l-31-34.75c-1.71-1.92-1.83-3.62-.43-5.77,3.11-4.78,6.23-9.56,9.31-14.36a4.64,4.64,0,0,1,4.26-2.31C31.12,25.65,38.18,25.63,45.25,25.63ZM58,47q-4.63,15-9.26,30l.16.1L75.73,47ZM41.58,77.17l.16-.09L32.48,47H14.74Zm3.54-1.12h.22q4.45-14.49,8.93-29H36.18ZM30.56,43.42,22.27,30.61,14,43.42Zm37.67-12.8c-2.79,4.3-5.5,8.5-8.27,12.78H76.5ZM56.69,42c2.76-4.28,5.48-8.47,8.22-12.72H48.45C51.22,33.5,53.91,37.67,56.69,42ZM42,29.21H25.57L33.8,41.92Zm11.4,14.2L45.23,30.75,37,43.41Z"/><path class="cls-1" d="M47,7.48c0,1.85,0,3.71,0,5.56a1.76,1.76,0,0,1-1.77,2,1.79,1.79,0,0,1-1.75-1.93q0-5.61,0-11.21A1.74,1.74,0,0,1,45.3,0,1.72,1.72,0,0,1,47,1.92C47,3.77,47,5.63,47,7.48Z"/><path class="cls-1" d="M77.77,14.72a5.32,5.32,0,0,1-.67,1.13c-1.85,1.9-3.72,3.77-5.61,5.63a1.77,1.77,0,0,1-2.6.13A1.75,1.75,0,0,1,69,19c1.87-1.91,3.78-3.8,5.67-5.69a1.74,1.74,0,0,1,2-.46A1.89,1.89,0,0,1,77.77,14.72Z"/><path class="cls-1" d="M22.18,20.1a1.81,1.81,0,0,1-1,1.81,1.74,1.74,0,0,1-2.09-.45q-2.53-2.52-5-5.06c-.27-.27-.56-.53-.8-.82a1.74,1.74,0,0,1,.13-2.4,1.68,1.68,0,0,1,2.33-.06q3.07,3,6,6.06A2.82,2.82,0,0,1,22.18,20.1Z"/><path class="cls-1" d="M47,19.23A1.77,1.77,0,0,1,45.3,21a1.83,1.83,0,0,1-1.8-1.81,1.79,1.79,0,0,1,1.79-1.71A1.73,1.73,0,0,1,47,19.23Z"/></g></g></svg>