<svg xmlns="http://www.w3.org/2000/svg" viewBox="0 0 14.76 27.3"><defs><style>.cls-1{fill:#fff;}</style></defs><title>faceboook_blanco</title><g id="Capa_2" data-name="Capa 2"><g id="Capa_1-2" data-name="Capa 1"><path class="cls-1" d="M9.46,27.3h-5a.76.76,0,0,1-.39-.74q0-5.4,0-10.8v-.34H.67c-.47,0-.67-.19-.67-.67V10.49c0-.48.2-.67.69-.67H4.12V9.5c0-.91,0-1.81,0-2.72A9.07,9.07,0,0,1,4.3,5,5.77,5.77,0,0,1,8.51.3,14.92,14.92,0,0,1,10,0h4.37a.69.69,0,0,1,.4.61c0,1.36,0,2.72,0,4.08,0,.39-.21.59-.62.59H13c-.6,0-1.21,0-1.81.06A1.21,1.21,0,0,0,9.93,6.52c-.07.7,0,1.41,0,2.11,0,.39,0,.77,0,1.19h4c.5,0,.69.19.69.69v4.24c0,.47-.2.67-.67.67h-4v.36c0,3.59,0,7.18,0,10.77A.7.7,0,0,1,9.46,27.3Z"/></g></g></svg>