<svg xmlns="http://www.w3.org/2000/svg" viewBox="0 0 90.46 73.5"><title>flecha_negra</title><g id="Capa_2" data-name="Capa 2"><g id="Capa_1-2" data-name="Capa 1"><path d="M34.81,0h3.88c.84.11,1.68.2,2.52.33,14.09,2.15,23.94,9.8,29.62,22.85l.41,1a3.2,3.2,0,0,1,3.07-1.42c4.24,0,8.48.07,12.71,0a3.22,3.22,0,0,1,3.44,2V26c-.35.57-.67,1.17-1.07,1.71Q86.24,31.93,83,36.15a.82.82,0,0,0,0,1.2q1.74,2.24,3.4,4.51c1.36,1.88,2.68,3.78,4,5.67v1.23a3.19,3.19,0,0,1-3.44,2c-4-.07-8,0-12,0-1.41,0-2.85.16-3.77-1.4l-.36.81q-7.83,18.52-27.5,22.67c-1.6.34-3.25.46-4.87.68H34.81a5.67,5.67,0,0,0-.69-.15,32.14,32.14,0,0,1-9.54-2C11.67,66.45,3.67,57.25.7,43.74c-.33-1.49-.47-3-.7-4.52V34.28a4.65,4.65,0,0,0,.15-.59,35.63,35.63,0,0,1,8-20A36,36,0,0,1,30,.68C31.6.39,33.21.22,34.81,0ZM62,34a2.14,2.14,0,0,0,2.64-1,21.61,21.61,0,0,1,2.16-2.9A1.58,1.58,0,0,0,67,28.54,31.41,31.41,0,1,0,50.33,65c8.61-4.15,14.14-11,16.76-20.21a1.35,1.35,0,0,0-.27-1.37,26.28,26.28,0,0,1-2.16-2.9,2.14,2.14,0,0,0-2.71-1,25.15,25.15,0,0,1-9.77,17.32,24.68,24.68,0,0,1-19.36,5,25.35,25.35,0,0,1,1-50.24,24.49,24.49,0,0,1,16.51,3.85A25.25,25.25,0,0,1,62,34Zm-5.43.08A20,20,0,1,0,38.7,56.7,20.08,20.08,0,0,0,56.58,39.4c-1.86,0-3.59,0-5.32,0-.63,0-.83.19-1,.79A14,14,0,1,1,39.66,23.08c5.56,1.31,9.08,4.84,10.65,10.31.1.38.1.73.67.72C52.8,34.08,54.62,34.1,56.53,34.1ZM44.92,39.4H44c-2.35,0-4.71.06-7.06,0a3.84,3.84,0,0,1-2.12-.84,2.29,2.29,0,0,1-.53-2.76,2.5,2.5,0,0,1,2.47-1.65c2.71,0,5.41,0,8.12,0-.49-3.4-4.65-6.21-8.81-6A8.69,8.69,0,1,0,44.92,39.4Zm37.57,6-5.1-6.8a2.71,2.71,0,0,1,0-3.78c1.52-2.05,3.06-4.09,4.59-6.14.13-.17.22-.37.39-.65-2.43,0-4.72,0-7,0a1.12,1.12,0,0,0-.77.43c-2,2.58-3.89,5.17-5.84,7.75a.7.7,0,0,0,0,1c1.94,2.55,3.85,5.12,5.78,7.68.16.21.44.47.67.47C77.57,45.45,79.92,45.43,82.49,45.43Z"/></g></g></svg>