<svg xmlns="http://www.w3.org/2000/svg" viewBox="0 0 37.18 26.14"><defs><style>.cls-1{fill:#ffcf00;}</style></defs><title>gomessage</title><g id="Capa_2" data-name="Capa 2"><g id="Capa_1-2" data-name="Capa 1"><path class="cls-1" d="M23.82,26.14c-.79-.37-1.07-.76-1-1.44a1.58,1.58,0,0,1,.54-1c3-3,6-6,9-9l.33-.34h-.5q-15.24,0-30.49,0a1.54,1.54,0,0,1-1.66-1v-.58a1.48,1.48,0,0,1,1.63-1h31l-.31-.34q-4.51-4.51-9-9A1.42,1.42,0,0,1,22.82,1a1.42,1.42,0,0,1,1-1h.58a9.12,9.12,0,0,1,.92.68L36.5,11.86a9.12,9.12,0,0,1,.68.92v.58a9.12,9.12,0,0,1-.68.92q-5.58,5.6-11.18,11.18a6.83,6.83,0,0,1-.92.68Z"/></g></g></svg>