<svg xmlns="http://www.w3.org/2000/svg" viewBox="0 0 27.3 21.76"><defs><style>.cls-1{fill:#fff;}</style></defs><title>home_blanco</title><g id="Capa_2" data-name="Capa 2"><g id="Capa_1-2" data-name="Capa 1"><path class="cls-1" d="M22.5,21.76H15.84c0-.12,0-.23,0-.35,0-1.94,0-3.88,0-5.83v-.31H11.48V20.8c0,.32,0,.64,0,1H4.85A1.17,1.17,0,0,1,3.9,20.4q0-3.84,0-7.68a.53.53,0,0,1,.21-.45l7.8-6.42,1.75-1.44.2.15,9.38,7.73a.45.45,0,0,1,.18.41v7.84a1.55,1.55,0,0,1,0,.37A1.19,1.19,0,0,1,22.5,21.76Z"/><path class="cls-1" d="M0,11.2v-.37a3.19,3.19,0,0,1,.31-.33L11.92.82A3.11,3.11,0,0,1,13.44,0h.43a2.93,2.93,0,0,1,1.45.77c1.17,1,2.36,2,3.53,3,.06,0,.13.08.23.15v-.3c0-.94,0-1.87,0-2.8,0-.56.16-.72.71-.72h2.9c.55,0,.72.17.72.72q0,3.23,0,6.47a.54.54,0,0,0,.22.45l3.28,2.72a5.18,5.18,0,0,1,.4.41v.37l-1.08,1.31a.58.58,0,0,1-1,.08L15.49,4.44,13.66,2.92l-.2.15L8.14,7.51,2,12.59a.59.59,0,0,1-1-.08Z"/></g></g></svg>