<svg xmlns="http://www.w3.org/2000/svg" xmlns:xlink="http://www.w3.org/1999/xlink" viewBox="0 0 152 152"><defs><style>.cls-1{fill:none;}.cls-2{fill:#ffcf00;}.cls-3{fill:#af8b0e;}.cls-4{fill:#fff;}.cls-5{clip-path:url(#clip-path);}.cls-6{fill:#b4b3b3;}.cls-7{fill:#6c5615;}</style><clipPath id="clip-path"><path class="cls-1" d="M55.38,82.77a18.87,18.87,0,0,1,6.53.29,17.88,17.88,0,0,1,7.54,3.63c.9.75,1.72,1.6,2.64,2.32a10.72,10.72,0,0,0,7.56,2.36A11,11,0,0,0,86.88,88a18.26,18.26,0,0,1,8.59-4.87,19.07,19.07,0,0,1,13.2,1.51,33.12,33.12,0,0,0,2.88-13.51c0-18.31-20.93-41.92-39.24-41.92s-35.93,15-35.93,33.33c0,5,10,18.35,12,22.6.37-.22.75-.44,1.14-.63A18.39,18.39,0,0,1,55.38,82.77Z"/></clipPath></defs><title>logo_circulo</title><g id="Capa_2" data-name="Capa 2"><g id="Capa_1-2" data-name="Capa 1"><circle class="cls-2" cx="76" cy="76" r="76"/><path class="cls-3" d="M55.38,82.77a18.87,18.87,0,0,1,6.53.29,17.88,17.88,0,0,1,7.54,3.63c.9.75,1.72,1.6,2.64,2.32a10.72,10.72,0,0,0,7.56,2.36A11,11,0,0,0,86.88,88a18.26,18.26,0,0,1,8.59-4.87,19.07,19.07,0,0,1,13.2,1.51,33.15,33.15,0,1,0-60.3.5c.37-.22.75-.44,1.14-.63A18.39,18.39,0,0,1,55.38,82.77Z"/><path class="cls-4" d="M103.9,106.79a18.51,18.51,0,0,0-8.44.17,18.25,18.25,0,0,0-8.58,4.86,11,11,0,0,1-7.23,3.33,10.72,10.72,0,0,1-7.56-2.36c-.92-.72-1.74-1.57-2.65-2.31a17.67,17.67,0,0,0-7.53-3.63,18.68,18.68,0,0,0-6.54-.29,17.76,17.76,0,0,0-9.06,3.83,36.57,36.57,0,0,0,4.26,6.31,11.06,11.06,0,0,1,12.58-1.37,16.69,16.69,0,0,1,3.27,2.6,18.18,18.18,0,0,0,8.76,4.44,18.73,18.73,0,0,0,9.4-.49,18.29,18.29,0,0,0,7.47-4.51,11,11,0,0,1,8.57-3.37,10.68,10.68,0,0,1,6.66,2.7,37.36,37.36,0,0,0,4.27-6.33A17.7,17.7,0,0,0,103.9,106.79Z"/><path class="cls-4" d="M112.88,95.15a17.46,17.46,0,0,0-4.21-3.07,19.07,19.07,0,0,0-13.2-1.51,18.26,18.26,0,0,0-8.59,4.87,11,11,0,0,1-7.23,3.33,10.72,10.72,0,0,1-7.56-2.36c-.92-.72-1.74-1.57-2.64-2.32a17.88,17.88,0,0,0-7.54-3.63,18.87,18.87,0,0,0-6.53-.29A18.39,18.39,0,0,0,49.51,92c-.39.19-.77.41-1.14.63a22.12,22.12,0,0,0-4.09,3.2,9.72,9.72,0,0,1-2,1.53A35.93,35.93,0,0,0,44,104.9a17.74,17.74,0,0,0,5.62-3.67,14.59,14.59,0,0,1,2.8-2.17,10.2,10.2,0,0,1,2-.93,11.09,11.09,0,0,1,8.75.82,16.66,16.66,0,0,1,3.26,2.59A18.13,18.13,0,0,0,75.18,106a18.62,18.62,0,0,0,9.4-.49,18.14,18.14,0,0,0,7.47-4.5,11,11,0,0,1,8.58-3.37,10.75,10.75,0,0,1,4.14,1,11.49,11.49,0,0,1,3,2.06,21.75,21.75,0,0,0,4,3.12,18.78,18.78,0,0,0,2.15,1.08,36.4,36.4,0,0,0,1.71-7.61A13.87,13.87,0,0,1,112.88,95.15Z"/><g class="cls-5"><polygon class="cls-4" points="101.24 78.12 89.85 55.74 89.85 74.14 101.24 86.47 101.24 78.12"/><polygon class="cls-6" points="89.8 55.65 80.3 55.65 77.88 61.17 89.85 74.14 89.85 55.74 89.8 55.65"/><path class="cls-7" d="M48.74,53.18s-5-9.44,1.78-12.59S74.17,45.11,82.88,57.7s19,28.65,19,28.65V89.9Z"/><path class="cls-6" d="M62.46,89.9l2.59,2.26,3.06-3.22L55.6,46.73l-5.24-1.21S47.05,47,47.77,52.13s5.9,2.95,11.79,23.49C59.56,75.62,61,81.51,62.46,89.9Z"/><path class="cls-4" d="M64.29,45.88a.7.7,0,0,1-.37-.11c-5.52-3.54-13.36-2.19-13.44-2.17a.69.69,0,1,1-.24-1.35c.34-.06,8.45-1.46,14.42,2.36a.69.69,0,0,1,.21,1A.67.67,0,0,1,64.29,45.88Z"/><path class="cls-4" d="M78.39,55.65a.68.68,0,0,1-.48-.19,79.26,79.26,0,0,0-10.51-8.3.69.69,0,0,1-.21-.95.68.68,0,0,1,1-.2,79,79,0,0,1,10.73,8.47.68.68,0,0,1,0,1A.66.66,0,0,1,78.39,55.65Z"/><path class="cls-4" d="M50.36,45.52S75,40.11,101.85,89v3.14H65.05S63.39,70.05,50.36,45.52Z"/></g></g></g></svg>