<svg xmlns="http://www.w3.org/2000/svg" viewBox="0 0 84 63.98"><title>mensaje_black</title><g id="Capa_2" data-name="Capa 2"><g id="Capa_1-2" data-name="Capa 1"><path d="M84,9V55a4,4,0,0,0-.15.45,10.19,10.19,0,0,1-7.39,8.17c-.54.17-1.1.27-1.65.4H9.19a4,4,0,0,0-.45-.15A9.87,9.87,0,0,1,1.4,58.77,24.38,24.38,0,0,1,0,55V9a1.66,1.66,0,0,0,.14-.37A9.81,9.81,0,0,1,5.3,1.37,24.85,24.85,0,0,1,9.19,0H74.81a2.13,2.13,0,0,0,.37.14,9.78,9.78,0,0,1,7.38,5A25.61,25.61,0,0,1,84,9ZM42,59.25H73.59a5.5,5.5,0,0,0,5.71-5.58c0-14.27,0-28.54,0-42.82a5.9,5.9,0,0,0-6.08-6.13c-20.83.07-41.67,0-62.5,0-3.75,0-6,2.27-6,6q0,21.24,0,42.49A7.42,7.42,0,0,0,4.86,55a5.51,5.51,0,0,0,5.65,4.29Z"/><path d="M42.07,34.94,50,27.82q10-9,20-17.91a4.13,4.13,0,0,1,1.36-.86,2.32,2.32,0,0,1,2.31,3.83c-.72.74-1.52,1.41-2.29,2.1L53.4,31.08l-.41.37c1.86,1.77,3.69,3.53,5.54,5.27L73.1,50.55c.22.21.44.41.64.64a2.36,2.36,0,0,1-.09,3.2,2.33,2.33,0,0,1-3.13.17,10.34,10.34,0,0,1-.84-.78L50.48,35.54l-1-.93-5.26,4.71c-1.7,1.53-2.64,1.52-4.32,0l-5.09-4.54c-.25.23-.52.45-.76.68L14.11,54.13a2.64,2.64,0,0,1-2.28.88,2.32,2.32,0,0,1-1.47-3.77,6.61,6.61,0,0,1,.7-.7q9.78-9.16,19.57-18.32a7.36,7.36,0,0,1,.73-.53l-6.19-5.53L10.68,13.21a2.34,2.34,0,0,1-.86-2.63,2.25,2.25,0,0,1,2-1.63,2.57,2.57,0,0,1,2.13.83l10,8.92L41.53,34.5A6.78,6.78,0,0,0,42.07,34.94Z"/></g></g></svg>