<svg xmlns="http://www.w3.org/2000/svg" viewBox="0 0 84 84"><title>phone_black</title><g id="Capa_2" data-name="Capa 2"><g id="Capa_1-2" data-name="Capa 1"><path d="M0,22.64c.13-.86.23-1.73.41-2.58a12.94,12.94,0,0,1,3.71-6.62C6,11.53,7.92,9.59,9.83,7.68,13.54,4,18.3,3.89,22.06,7.54q5.06,4.91,10,10c3.45,3.56,3.5,8,.14,11.65-1.74,1.88-3.6,3.66-5.44,5.45a.79.79,0,0,0-.21,1.1,40.42,40.42,0,0,0,5.4,8,58.91,58.91,0,0,0,13.3,12c1.1.71,2.28,1.28,3.66,2,.52-.6,1-1.24,1.59-1.82,1.4-1.43,2.79-2.85,4.25-4.22a7.86,7.86,0,0,1,11.45.15q5,4.94,10,10c3.63,3.72,3.67,8.33.11,12.13-2,2.15-4.1,4.25-6.2,6.32a12.66,12.66,0,0,1-7.47,3.59A5.44,5.44,0,0,0,62,84H58.73c-.47-.08-.95-.17-1.43-.24a45.67,45.67,0,0,1-13.93-4.6A85,85,0,0,1,8.67,47.59,58.57,58.57,0,0,1,.75,29.44C.39,27.86.25,26.22,0,24.61ZM60.07,79.23a8.91,8.91,0,0,0,7.38-3.15c1-1.07,2-2.08,3-3.12s1.85-1.79,2.67-2.77A3.15,3.15,0,0,0,73,65.54Q67.83,60.2,62.5,55a3,3,0,0,0-4.23-.1,11.5,11.5,0,0,0-1,.89c-1.9,1.89-3.78,3.8-5.69,5.67a3.48,3.48,0,0,1-4.27.86c-1.58-.8-3.16-1.62-4.66-2.56A61.74,61.74,0,0,1,28.9,47.58a42.8,42.8,0,0,1-7.13-10.75c-1-2.2-.66-3.47,1.06-5.13,2-1.9,3.94-3.8,5.83-5.77,1.65-1.71,1.65-3.36,0-5q-5-5.07-10-10c-1.66-1.63-3.46-1.62-5.14,0C11.32,13,9.18,15.13,7.06,17.3a7.21,7.21,0,0,0-2,4A20.35,20.35,0,0,0,6,30.56,65.19,65.19,0,0,0,16.2,50.15,78.44,78.44,0,0,0,50,76.89,29.5,29.5,0,0,0,60.07,79.23Z"/><path d="M47.09,0c2.07.54,4.21.93,6.22,1.66Q77.91,10.47,83.69,36c.1.42.21.84.31,1.26v.49a2.8,2.8,0,0,1-1.6,1.94,2.43,2.43,0,0,1-3.2-1.8,65.26,65.26,0,0,0-2.47-8.46C71.06,16.19,61.13,8,47.06,4.93l-.81-.16A2.42,2.42,0,0,1,44.14,2.7,2.36,2.36,0,0,1,45.66.16L45.94,0Z"/><path d="M46.44,15.24A44.86,44.86,0,0,1,51,16.55q14.52,5.68,17.69,21a2.42,2.42,0,0,1-1.81,3,2.38,2.38,0,0,1-2.88-2A22.52,22.52,0,0,0,51,21.75,34,34,0,0,0,45.42,20a2.44,2.44,0,0,1-2-2.71C43.61,16.14,44.63,15.25,46.44,15.24Z"/></g></g></svg>