<svg xmlns="http://www.w3.org/2000/svg" viewBox="0 0 68 90.67"><defs><style>.cls-1{fill:#ffcf00;}</style></defs><title>ubicacion_amarillo</title><g id="Capa_2" data-name="Capa 2"><g id="Capa_1-2" data-name="Capa 1"><path class="cls-1" d="M68,35.77c-.32,1.55-.57,3.12-1,4.64-1.71,6.29-4.69,12-7.94,17.6-1.36,2.34-2.81,4.63-4.27,6.92a3.66,3.66,0,0,1-4,1.69,3.75,3.75,0,0,1-2.95-3.05,4.28,4.28,0,0,1,.75-3c2.61-4.51,5.29-9,7.75-13.58a33.94,33.94,0,0,0,3.8-10.52,22.91,22.91,0,0,0-2-13.19A26.43,26.43,0,0,0,31.75,7.64,26.71,26.71,0,0,0,7.93,29.41,24.22,24.22,0,0,0,9.81,43.12a112.85,112.85,0,0,0,9.54,17.43c4.4,6.83,9.17,13.38,14.19,19.76.12.16.26.3.47.54,1-1.25,1.92-2.44,2.84-3.65C38,75.74,39,74.27,40.14,72.81a3.79,3.79,0,1,1,6.08,4.47c-2.95,3.87-5.91,7.73-8.95,11.53a12.56,12.56,0,0,1-2.38,1.86H33.11A10.79,10.79,0,0,1,31,89.08,235.54,235.54,0,0,1,9.13,58.41,78,78,0,0,1,1.5,42.12c-.64-2.07-1-4.23-1.5-6.35V31.7c.05-.26.11-.51.16-.76a50.15,50.15,0,0,1,1.15-6.15C5.16,12.32,13.44,4.35,26.06,1,27.89.48,29.82.32,31.7,0h4.6c1.16.17,2.33.32,3.48.51A34,34,0,0,1,67.11,26.4c.39,1.75.6,3.53.89,5.3Z"/><path class="cls-1" d="M34,43.43A13.22,13.22,0,1,1,47.23,30.24,13.24,13.24,0,0,1,34,43.43Zm0-18.85a5.66,5.66,0,0,0-5.66,5.61,5.67,5.67,0,1,0,11.33.07A5.63,5.63,0,0,0,34,24.58Z"/></g></g></svg>