<svg xmlns="http://www.w3.org/2000/svg" viewBox="0 0 27.3 18.77"><defs><style>.cls-1{fill:#fff;}</style></defs><title>youtube_blanco</title><g id="Capa_2" data-name="Capa 2"><g id="Capa_1-2" data-name="Capa 1"><path class="cls-1" d="M27.3,7.73V11a1.81,1.81,0,0,0,0,.23c-.05.62-.07,1.24-.13,1.86a11.37,11.37,0,0,1-.69,3.21,3.13,3.13,0,0,1-2.95,2.23l-4.57.16-1.06,0H9.49a2.58,2.58,0,0,0-.29,0l-4.95-.13A3.21,3.21,0,0,1,1,16.73c-.1-.23-.21-.45-.29-.68a13.24,13.24,0,0,1-.64-3.53C.07,12,0,11.53,0,11V7.73c0-.08,0-.17,0-.26C.1,6.7.13,5.93.22,5.16a10,10,0,0,1,.74-3A3,3,0,0,1,3.77.2L8.38,0l.85,0h8.85a2.3,2.3,0,0,0,.26,0c1.77.06,3.53.11,5.3.19a2.76,2.76,0,0,1,2.5,1.59,7.92,7.92,0,0,1,.42.94,13.42,13.42,0,0,1,.64,3.5C27.24,6.74,27.27,7.24,27.3,7.73Zm-17,6.77,8.52-5.11L10.25,4.27Z"/></g></g></svg>